<svg width="31" height="25" viewBox="0 0 31 25" fill="none" xmlns="http://www.w3.org/2000/svg">
<path d="M27.75 6.16667L15.4167 13.875L3.08333 6.16667V3.08333L15.4167 10.7917L27.75 3.08333V6.16667ZM27.75 0H3.08333C1.37208 0 0 1.37208 0 3.08333V21.5833C0 22.4011 0.32485 23.1853 0.903087 23.7636C1.48132 24.3418 2.26558 24.6667 3.08333 24.6667H27.75C28.5678 24.6667 29.352 24.3418 29.9302 23.7636C30.5085 23.1853 30.8333 22.4011 30.8333 21.5833V3.08333C30.8333 2.26558 30.5085 1.48132 29.9302 0.903087C29.352 0.32485 28.5678 0 27.75 0Z" fill="#333333"/>
</svg>
