<svg width="28" height="30" viewBox="0 0 28 30" fill="none" xmlns="http://www.w3.org/2000/svg">
<path fill-rule="evenodd" clip-rule="evenodd" d="M24.6667 2.98781H18.2225C17.575 1.25488 15.8792 0 13.875 0C11.8708 0 10.175 1.25488 9.5275 2.98781H3.08333C1.3875 2.98781 0 4.33232 0 5.97562V26.8903C0 28.5336 1.3875 29.8781 3.08333 29.8781H24.6667C26.3625 29.8781 27.75 28.5336 27.75 26.8903V5.97562C27.75 4.33232 26.3625 2.98781 24.6667 2.98781ZM13.8748 2.98782C14.7227 2.98782 15.4165 3.66007 15.4165 4.48172C15.4165 5.30337 14.7227 5.97562 13.8748 5.97562C13.0269 5.97562 12.3331 5.30337 12.3331 4.48172C12.3331 3.66007 13.0269 2.98782 13.8748 2.98782ZM13.8748 8.96345C16.434 8.96345 18.4998 10.9653 18.4998 13.4452C18.4998 15.925 16.434 17.9269 13.8748 17.9269C11.3157 17.9269 9.24984 15.925 9.24984 13.4452C9.24984 10.9653 11.3157 8.96345 13.8748 8.96345ZM23.1249 26.8903H4.62492V24.7988C4.62492 21.811 10.7916 20.1677 13.8749 20.1677C16.9583 20.1677 23.1249 21.811 23.1249 24.7988V26.8903Z" fill="#333333"/>
</svg>
