<svg width="33" height="33" viewBox="0 0 33 33" fill="none" xmlns="http://www.w3.org/2000/svg">
<path fill-rule="evenodd" clip-rule="evenodd" d="M29.7159 22.4652L25.0578 21.9334C23.9391 21.805 22.8388 22.1902 22.0502 22.9787L18.6758 26.3531C13.4859 23.7123 9.23124 19.476 6.59043 14.2677L9.98314 10.875C10.7717 10.0864 11.1568 8.98609 11.0285 7.86742L10.4966 3.246C10.2766 1.39376 8.71775 0 6.84717 0H3.67453C1.60223 0 -0.121636 1.72386 0.00673678 3.79617C0.978702 19.4576 13.5042 31.9648 29.1474 32.9368C31.2197 33.0652 32.9435 31.3413 32.9435 29.269V26.0964C32.9619 24.2441 31.5681 22.6853 29.7159 22.4652Z" fill="#333333"/>
</svg>
